#!OML:ASF F:\VICON\USERDATA\INSTALL\rory3\rory3.ASF
:FULLY-SPECIFIED
:DEGREES
181
root -0.901783 15.6706 22.6347 -157.749 -3.37842 -178.259
lowerback -6.59904 -0.788052 1.11025
upperback -10.9583 -2.5254 1.2257
thorax -7.80273 -1.93392 0.767056
lowerneck -21.5419 -0.167143 -0.632369
upperneck 33.4938 1.7526 0.667294
head 15.3619 1.46747 0.925194
rclavicle 6.75713e-015 -8.89561e-015
rhumerus -48.752 -80.6251 3.91997
rradius 12.9564
rwrist 122.808
rhand -14.8291 12.8409
rfingers 7.12502
rthumb 11.3296 -16.8331
lclavicle 6.75713e-015 -8.89561e-015
lhumerus 24.2356 -31.3321 42.0658
lradius 20.435
lwrist -54.0973
lhand 4.88168 21.9276
lfingers 7.12502
lthumb 30.2571 49.468
rfemur -68.2392 -0.639433 28.3423
rtibia 55.8381
rfoot -8.81272 -15.8595
rtoes 20.6662
lfemur -5.92315 -9.39693 -22.2635
ltibia 32.5253
lfoot -38.4165 19.8422
ltoes -25.2312
182
root -0.886003 15.7447 22.4046 -157.742 -4.33428 -177.529
lowerback -7.30675 -0.88031 1.97432
upperback -10.8393 -2.67508 1.57554
thorax -7.28686 -2.0633 0.615226
lowerneck -22.2013 -0.238794 -0.671972
upperneck 33.8259 1.74198 0.482164
head 15.6758 1.42473 0.866055
rclavicle -3.7707e-015 1.14798e-014
rhumerus -41.2911 -80.9465 -1.96156
rradius 12.9373
rwrist 120.976
rhand -14.4317 12.4033
rfingers 7.12502
rthumb 11.7128 -17.2493
lclavicle -3.7707e-015 1.14798e-014
lhumerus 26.0472 -30.8748 40.0664
lradius 20.6376
lwrist -53.4066
lhand -0.583156 23.0259
lfingers 7.12502
lthumb 25.0317 51.4057
rfemur -67.0732 -0.741809 29.2109
rtibia 55.5766
rfoot -9.37489 -16.3822
rtoes 20.7465
lfemur -5.71897 -9.4415 -21.135
ltibia 32.9171
lfoot -36.6134 19.6724
ltoes -22.9798
183
root -0.866615 15.8326 22.182 -157.561 -5.2983 -176.975
lowerback -8.10451 -0.893792 2.61351
upperback -11.0946 -2.82603 1.84632
thorax -7.13552 -2.22164 0.521583
lowerneck -21.8907 -0.430975 -0.725937
upperneck 34.2071 1.63909 0.369955
head 15.7909 1.39987 0.822335
rclavicle 1.04238e-014 -7.35503e-015
rhumerus -40.0843 -81.3687 -1.61381
rradius 13.1062
rwrist 120.493
rhand -14.1076 12.391
rfingers 7.12502
rthumb 12.0253 -17.2435
lclavicle 1.04238e-014 -7.35503e-015
lhumerus 27.6527 -32.3311 37.4614
lradius 20.768
lwrist -50.6191
lhand -0.0442342 22.6236
lfingers 7.12502
lthumb 25.548 50.9304
rfemur -66.0079 -0.569719 29.6725
rtibia 55.1106
rfoot -9.8285 -17.1355
rtoes 20.345
lfemur -6.01015 -9.31296 -20.0959
ltibia 33.4013
lfoot -33.9702 20.5359
ltoes -22.5741
184
root -0.847513 15.9425 21.9647 -157.313 -6.09597 -176.722
lowerback -8.8516 -0.902844 2.88111
upperback -11.3912 -2.97446 2.07152
thorax -7.04729 -2.35682 0.589299
lowerneck -22.0664 -0.744573 -0.790159
upperneck 34.9618 1.42118 0.191507
head 16.2093 1.32097 0.743005
rclavicle 1.16786e-014 1.39149e-014
rhumerus -37.2784 -81.2475 -2.88192
rradius 13.1109
rwrist 119.658
rhand -14.1061 12.2891
rfingers 7.12502
rthumb 12.0268 -17.3454
lclavicle 1.16786e-014 1.39149e-014
lhumerus 28.3894 -31.4287 36.9996
lradius 20.5205
lwrist -49.092
lhand 0.566978 22.4157
lfingers 7.12502
lthumb 26.1333 50.6373
rfemur -64.9092 -0.317198 29.7
rtibia 54.4576
rfoot -10.2693 -17.7646
rtoes 20.6601
lfemur -6.51691 -9.18631 -19.4518
ltibia 33.9485
lfoot -31.8142 21.1339
ltoes -19.3945
185
root -0.830958 16.0767 21.7478 -157.166 -6.84609 -176.704
lowerback -9.48606 -0.950523 2.91534
upperback -11.5917 -3.13517 2.23369
thorax -6.90995 -2.468 0.716526
lowerneck -21.2458 -0.774294 -1.01295
upperneck 35.0729 1.5692 0.262868
head 16.0671 1.41384 0.848901
rclavicle 3.96451e-014 -7.35503e-015
rhumerus -31.3379 -80.2652 -7.32662
rradius 12.8155
rwrist 117.682
rhand -14.0941 12.234
rfingers 7.12502
rthumb 12.0384 -17.3997
lclavicle 3.96451e-014 -7.35503e-015
lhumerus 29.5782 -32.3606 35.1588
lradius 20.665
lwrist -47.3624
lhand 0.569454 23.1624
lfingers 7.12502
lthumb 26.1357 51.3836
rfemur -63.6115 -0.158908 29.4448
rtibia 53.6296
rfoot -10.1168 -18.1834
rtoes 20.5986
lfemur -6.97101 -8.82309 -19.0844
ltibia 34.411
lfoot -29.6168 22.0117
ltoes -14.7825
186
root -0.814829 16.2206 21.533 -157.065 -7.63358 -176.466
lowerback -9.98793 -0.931882 3.17464
upperback -11.8842 -3.23283 2.39276
thorax -6.96158 -2.57559 0.731257
lowerneck -19.8953 -0.856406 -1.30395
upperneck 34.9821 1.60849 0.481378
head 15.6982 1.4869 0.999017
rclavicle 2.55935e-015 1.61016e-014
rhumerus -27.7056 -78.915 -9.73605
rradius 12.6805
rwrist 115.615
rhand -14.9837 13.0104
rfingers 7.12502
rthumb 11.1805 -16.6717
lclavicle 2.55935e-015 1.61016e-014
lhumerus 30.6975 -33.4175 33.4982
lradius 20.8276
lwrist -45.7627
lhand 0.51338 23.7116
lfingers 7.12502
lthumb 26.082 51.9408
rfemur -62.2132 0.185818 29.3584
rtibia 52.6528
rfoot -9.38417 -18.8053
rtoes 19.5302
lfemur -7.47207 -8.40352 -18.5067
ltibia 34.7214
lfoot -27.5976 23.4031
ltoes -9.66097
187
root -0.800527 16.3717 21.3357 -156.939 -8.16394 -176.442
lowerback -10.4983 -0.836732 3.22545
upperback -12.1389 -3.2136 2.35882
thorax -6.96625 -2.61144 0.658925
lowerneck -19.4663 -1.17688 -1.00097
upperneck 35.594 1.32261 0.213629
head 15.9057 1.44331 0.80466
rclavicle -8.5875e-014 3.16068e-014
rhumerus -28.1362 -78.3665 -8.2978
rradius 12.778
rwrist 114.648
rhand -13.3565 11.4222
rfingers 7.12502
rthumb 12.7495 -18.1685
lclavicle -8.5875e-014 3.16068e-014
lhumerus 31.242 -32.9404 33.3493
lradius 20.6839
lwrist -45.9973
lhand 0.513996 23.5453
lfingers 7.12502
lthumb 26.0826 51.7744
rfemur -60.929 0.62586 28.9821
rtibia 51.6882
rfoot -8.63674 -19.3092
rtoes 19.2791
lfemur -8.04956 -7.83908 -18.3204
ltibia 34.8388
lfoot -26.017 25.7928
ltoes -3.83798
188
root -0.791765 16.5358 21.1569 -156.783 -8.71425 -176.763
lowerback -10.9124 -0.952013 2.98278
upperback -11.9912 -3.34379 2.35427
thorax -6.56197 -2.64177 0.746583
lowerneck -20.0731 1.7041 -2.12088
upperneck 36.1375 -0.0516155 1.69749
head 16.3111 -1.07948 0.810814
rclavicle -4.01297e-014 1.74931e-014
rhumerus -29.189 -79.661 -6.27401
rradius 12.7754
rwrist 114.905
rhand -12.8739 10.9236
rfingers 7.12502
rthumb 13.2147 -18.6376
lclavicle -4.01297e-014 1.74931e-014
lhumerus 31.9129 -31.3028 33.4357
lradius 20.4657
lwrist -46.1758
lhand 0.572401 23.1735
lfingers 7.12502
lthumb 26.1385 51.3944
rfemur -59.872 0.863678 28.1442
rtibia 50.7648
rfoot -7.88955 -19.5545
rtoes 21.0617
lfemur -8.7446 -7.06768 -18.5548
ltibia 34.8554
lfoot -24.9295 28.97
ltoes 1.43271
189
root -0.786678 16.7034 20.9874 -156.78 -9.12108 -177.31
lowerback -11.0344 -1.06616 2.54782
upperback -11.9216 -3.44898 2.22172
thorax -6.40291 -2.65304 0.829293
lowerneck -19.8891 1.62276 -2.07869
upperneck 36.4837 -0.330283 1.7269
head 16.452 -1.22438 0.752535
rclavicle -3.80921e-014 6.16232e-015
rhumerus -32.6145 -80.9786 -2.01187
rradius 12.7887
rwrist 115.676
rhand -12.976 10.929
rfingers 7.12502
rthumb 13.1164 -18.6385
lclavicle -3.80921e-014 6.16232e-015
lhumerus 32.8554 -31.3934 32.3062
lradius 20.5016
lwrist -45.0192
lhand 0.469591 23.784
lfingers 7.12502
lthumb 26.0401 52.0193
rfemur -58.7268 1.168 26.8682
rtibia 49.9073
rfoot -7.88798 -19.6543
rtoes 23.4959
lfemur -9.21926 -6.17738 -19.2316
ltibia 34.7834
lfoot -26.2522 30.5532
ltoes 6.5094
190
root -0.778251 16.8622 20.8217 -156.893 -9.32449 -177.784
lowerback -10.6925 -1.06005 2.22826
upperback -12.1698 -3.44567 1.97477
thorax -6.86602 -2.65344 0.785216
lowerneck -18.9964 1.6163 -1.90582
upperneck 36.7889 -0.648237 1.7583
head 16.4 -1.40067 0.655553
rclavicle -3.60049e-014 7.55382e-015
rhumerus -35.4552 -80.922 1.35133
rradius 12.7709
rwrist 115.371
rhand -13.1853 10.8844
rfingers 7.12502
rthumb 12.9146 -18.6959
lclavicle -3.60049e-014 7.55382e-015
lhumerus 33.188 -31.8293 31.627
lradius 20.5092
lwrist -44.0435
lhand 0.883507 24.5301
lfingers 7.12502
lthumb 26.4363 52.7065
rfemur -57.4252 1.6979 25.766
rtibia 49.1817
rfoot -7.27128 -20.0386
rtoes 23.8086
lfemur -9.44189 -4.95025 -19.9229
ltibia 34.3357
lfoot -28.4395 30.3125
ltoes 10.1662
191
root -0.766176 17.0225 20.6588 -157.038 -9.75157 -178.086
lowerback -11.0307 -1.1527 1.8545
upperback -12.0459 -3.53289 1.92905
thorax -6.52441 -2.65758 0.909752
lowerneck -17.7625 1.59762 -1.82514
upperneck 36.6101 -0.872574 1.81628
head 16.0144 -1.51747 0.615537
rclavicle -8.29926e-015 1.03368e-014
rhumerus -38.7449 -81.4235 5.16198
rradius 12.8937
rwrist 114.801
rhand -13.0057 10.808
rfingers 7.12502
rthumb 13.0877 -18.7613
lclavicle -8.29926e-015 1.03368e-014
lhumerus 33.3351 -31.2126 31.7899
lradius 20.4122
lwrist -44.1474
lhand 0.849039 24.7714
lfingers 7.12502
lthumb 26.4034 52.9527
rfemur -56.1441 2.08872 25.1181
rtibia 48.4778
rfoot -5.71151 -20.5561
rtoes 22.0288
lfemur -9.94299 -4.14864 -20.3066
ltibia 34.122
lfoot -29.3193 30.0067
ltoes 9.52834
192
root -0.749018 17.2093 20.4604 -158.612 -12.2208 -179.389
lowerback -9.95634 -2.28433 0.986806
upperback -11.222 -4.67371 1.70694
thorax -6.16571 -3.03337 1.10754
lowerneck -18.1706 1.50782 -1.60432
upperneck 37.0623 -1.14713 1.75586
head 16.3529 -1.62699 0.491501
rclavicle -4.32357e-014 -9.34288e-015
rhumerus -42.7799 -82.1742 9.59823
rradius 12.8394
rwrist 113.913
rhand -12.7351 10.6686
rfingers 7.12502
rthumb 13.3485 -18.8839
lclavicle -4.32357e-014 -9.34288e-015
lhumerus 33.4449 -29.8161 32.068
lradius 20.3493
lwrist -45.2653
lhand 0.653997 24.4729
lfingers 7.12502
lthumb 26.2166 52.6822
rfemur -52.9957 1.21988 23.8574
rtibia 48.008
rfoot -4.74456 -22.2997
rtoes 19.8194
lfemur -8.69777 -5.07211 -20.7524
ltibia 33.7113
lfoot -29.1094 28.452
ltoes 6.08013
